<svg width="900" height="600" xmlns="http://www.w3.org/2000/svg">
<text x="450.0" y="30" text-anchor="middle" font-size="20" font-weight="bold">File Changes by Language (316 total)</text>
<path d="M 450.0,300.0 L 450.0,100.0 A 200.0,200.0 0 0,1 575.141615132112,143.98853836295757 Z" fill="#0066cc" stroke="white" stroke-width="2"/>
<rect x="700" y="50" width="15" height="15" fill="#0066cc"/>
<text x="720" y="62" font-size="12">Markdown: 34 (10.8%)</text>
<path d="M 450.0,300.0 L 575.141615132112,143.98853836295757 A 200.0,200.0 0 0,1 595.5757620738989,162.8588409827174 Z" fill="#4da6ff" stroke="white" stroke-width="2"/>
<rect x="700" y="75" width="15" height="15" fill="#4da6ff"/>
<text x="720" y="87" font-size="12">SVG: 7 (2.2%)</text>
<path d="M 450.0,300.0 L 595.5757620738989,162.8588409827174 A 200.0,200.0 0 0,1 610.863313054153,181.1597942056579 Z" fill="#99ccff" stroke="white" stroke-width="2"/>
<rect x="700" y="100" width="15" height="15" fill="#99ccff"/>
<text x="720" y="112" font-size="12">JSON: 6 (1.9%)</text>
<path d="M 450.0,300.0 L 610.863313054153,181.1597942056579 A 200.0,200.0 0 0,1 638.6826599444269,233.6761442895865 Z" fill="#00994d" stroke="white" stroke-width="2"/>
<rect x="700" y="125" width="15" height="15" fill="#00994d"/>
<text x="720" y="137" font-size="12">Shell: 15 (4.7%)</text>
<path d="M 450.0,300.0 L 638.6826599444269,233.6761442895865 A 200.0,200.0 0 0,1 555.6839156905238,469.7966724182728 Z" fill="#ffcc00" stroke="white" stroke-width="2"/>
<rect x="700" y="150" width="15" height="15" fill="#ffcc00"/>
<text x="720" y="162" font-size="12">Python: 68 (21.5%)</text>
<path d="M 450.0,300.0 L 555.6839156905238,469.7966724182728 A 200.0,200.0 0 0,1 548.8498377233445,473.86405488791655 Z" fill="#ff6600" stroke="white" stroke-width="2"/>
<rect x="700" y="175" width="15" height="15" fill="#ff6600"/>
<text x="720" y="187" font-size="12">Lock Files: 2 (0.6%)</text>
<path d="M 450.0,300.0 L 548.8498377233445,473.86405488791655 A 200.0,200.0 0 0,1 534.7238292817055,481.16807873310466 Z" fill="#cc0000" stroke="white" stroke-width="2"/>
<rect x="700" y="200" width="15" height="15" fill="#cc0000"/>
<text x="720" y="212" font-size="12">YAML: 4 (1.3%)</text>
<path d="M 450.0,300.0 L 534.7238292817055,481.16807873310466 A 200.0,200.0 0 0,1 508.7700548675841,491.1702922811522 Z" fill="#9966cc" stroke="white" stroke-width="2"/>
<rect x="700" y="225" width="15" height="15" fill="#9966cc"/>
<text x="720" y="237" font-size="12">Text Files: 7 (2.2%)</text>
<path d="M 450.0,300.0 L 508.7700548675841,491.1702922811522 A 200.0,200.0 0 0,1 337.6491143358458,465.4608065086114 Z" fill="#66cc99" stroke="white" stroke-width="2"/>
<rect x="700" y="250" width="15" height="15" fill="#66cc99"/>
<text x="720" y="262" font-size="12">HTML: 45 (14.2%)</text>
<path d="M 450.0,300.0 L 337.6491143358458,465.4608065086114 A 200.0,200.0 0 0,1 250.15812055453964,292.04869698061486 Z" fill="#ff6699" stroke="white" stroke-width="2"/>
<rect x="700" y="275" width="15" height="15" fill="#ff6699"/>
<text x="720" y="287" font-size="12">CSS/SCSS: 51 (16.1%)</text>
<path d="M 450.0,300.0 L 250.15812055453964,292.04869698061486 A 200.0,200.0 0 0,1 334.38159995503037,136.80568156016776 Z" fill="#0066cc" stroke="white" stroke-width="2"/>
<rect x="700" y="300" width="15" height="15" fill="#0066cc"/>
<text x="720" y="312" font-size="12">JavaScript: 46 (14.6%)</text>
<path d="M 450.0,300.0 L 334.38159995503037,136.80568156016776 A 200.0,200.0 0 0,1 422.2528936021864,101.93410670549963 Z" fill="#4da6ff" stroke="white" stroke-width="2"/>
<rect x="700" y="325" width="15" height="15" fill="#4da6ff"/>
<text x="720" y="337" font-size="12">Images: 24 (7.6%)</text>
<path d="M 450.0,300.0 L 422.2528936021864,101.93410670549963 A 200.0,200.0 0 0,1 434.10996660565706,100.63223219706083 Z" fill="#99ccff" stroke="white" stroke-width="2"/>
<rect x="700" y="350" width="15" height="15" fill="#99ccff"/>
<text x="720" y="362" font-size="12">Other: 3 (0.9%)</text>
<path d="M 450.0,300.0 L 434.10996660565706,100.63223219706083 A 200.0,200.0 0 0,1 438.07697496603595,100.3557126436134 Z" fill="#00994d" stroke="white" stroke-width="2"/>
<rect x="700" y="375" width="15" height="15" fill="#00994d"/>
<text x="720" y="387" font-size="12">TypeScript: 1 (0.3%)</text>
<path d="M 450.0,300.0 L 438.07697496603595,100.3557126436134 A 200.0,200.0 0 0,1 446.02356246698594,100.0395340459869 Z" fill="#ffcc00" stroke="white" stroke-width="2"/>
<rect x="700" y="400" width="15" height="15" fill="#ffcc00"/>
<text x="720" y="412" font-size="12">Data Files: 2 (0.6%)</text>
<path d="M 450.0,300.0 L 446.02356246698594,100.0395340459869 A 200.0,200.0 0 0,1 449.9999999999998,100.0 Z" fill="#ff6600" stroke="white" stroke-width="2"/>
<rect x="700" y="425" width="15" height="15" fill="#ff6600"/>
<text x="720" y="437" font-size="12">Ruby: 1 (0.3%)</text>
</svg>